<mxfile host="Electron" modified="2024-07-09T17:32:41.562Z" agent="Mozilla/5.0 (Windows NT 10.0; Win64; x64) AppleWebKit/537.36 (KHTML, like Gecko) draw.io/24.4.13 Chrome/124.0.6367.207 Electron/30.0.6 Safari/537.36" etag="WHuYYUPGeEvwPD40BFH8" version="24.4.13" type="device">
  <diagram name="Page-1" id="TcVOzWtFfHT8G91x1Uys">
    <mxGraphModel dx="691" dy="399" grid="0" gridSize="10" guides="1" tooltips="1" connect="1" arrows="1" fold="1" page="1" pageScale="1" pageWidth="827" pageHeight="1169" background="#000000" math="0" shadow="0">
      <root>
        <mxCell id="0" />
        <mxCell id="1" parent="0" />
        <mxCell id="GLrBYKz7AC777N1wSI6P-2" value="" style="shape=parallelogram;perimeter=parallelogramPerimeter;whiteSpace=wrap;html=1;fixedSize=1;fillColor=#ca5d46;fontColor=#ffffff;strokeColor=#FFFFFF;rotation=0;gradientColor=#000000;" vertex="1" parent="1">
          <mxGeometry x="211.32" y="84" width="104.32" height="32.85" as="geometry" />
        </mxCell>
        <mxCell id="GLrBYKz7AC777N1wSI6P-1" value="" style="shape=parallelogram;perimeter=parallelogramPerimeter;whiteSpace=wrap;html=1;fixedSize=1;fillColor=#62a85b;fontColor=#000000;strokeColor=#ffffff;rotation=0;gradientColor=#000000;" vertex="1" parent="1">
          <mxGeometry x="211.32" y="41.14999999999999" width="104.32" height="32.85" as="geometry" />
        </mxCell>
        <mxCell id="GLrBYKz7AC777N1wSI6P-3" value="" style="shape=parallelogram;perimeter=parallelogramPerimeter;whiteSpace=wrap;html=1;fixedSize=1;fillColor=#6295cd;fontColor=#ffffff;strokeColor=#ffffff;rotation=0;gradientColor=#000000;" vertex="1" parent="1">
          <mxGeometry x="211.32" y="125.41999999999999" width="104.32" height="32.85" as="geometry" />
        </mxCell>
        <mxCell id="GLrBYKz7AC777N1wSI6P-4" value="" style="shape=parallelogram;perimeter=parallelogramPerimeter;whiteSpace=wrap;html=1;fixedSize=1;fillColor=#9466c9;fontColor=#ffffff;strokeColor=#FFFFFF;rotation=0;gradientColor=#0C0D0D;" vertex="1" parent="1">
          <mxGeometry x="59" y="125.43" width="104.32" height="32.85" as="geometry" />
        </mxCell>
        <mxCell id="GLrBYKz7AC777N1wSI6P-5" value="" style="shape=parallelogram;perimeter=parallelogramPerimeter;whiteSpace=wrap;html=1;fixedSize=1;fillColor=#e3c800;fontColor=#000000;strokeColor=#ffffff;rotation=0;gradientColor=#050505;" vertex="1" parent="1">
          <mxGeometry x="147" y="185.14999999999998" width="104.32" height="32.85" as="geometry" />
        </mxCell>
        <mxCell id="GLrBYKz7AC777N1wSI6P-26" style="edgeStyle=orthogonalEdgeStyle;rounded=0;orthogonalLoop=1;jettySize=auto;html=1;entryX=1;entryY=0.5;entryDx=0;entryDy=0;dashed=1;endArrow=none;endFill=0;endSize=1;" edge="1" parent="1" source="GLrBYKz7AC777N1wSI6P-6" target="GLrBYKz7AC777N1wSI6P-1">
          <mxGeometry relative="1" as="geometry" />
        </mxCell>
        <mxCell id="GLrBYKz7AC777N1wSI6P-6" value="&lt;font style=&quot;font-size: 8px;&quot;&gt;&lt;b style=&quot;&quot;&gt;1. Drug layer&lt;/b&gt;&lt;/font&gt;&lt;div style=&quot;font-size: 8px;&quot;&gt;&lt;font style=&quot;font-size: 8px;&quot;&gt;&lt;font style=&quot;font-size: 8px;&quot;&gt;&lt;u&gt;Intra-layer links&lt;/u&gt;: no&lt;br&gt;&lt;/font&gt;&lt;u&gt;Inter-layer link&lt;/u&gt;: PPIN&lt;/font&gt;&lt;/div&gt;" style="text;html=1;align=left;verticalAlign=middle;whiteSpace=wrap;rounded=0;strokeWidth=0;" vertex="1" parent="1">
          <mxGeometry x="332" y="42.580000000000005" width="150" height="30" as="geometry" />
        </mxCell>
        <mxCell id="GLrBYKz7AC777N1wSI6P-7" value="&lt;font style=&quot;font-size: 8px;&quot;&gt;&lt;b&gt;2. PPIN layer&lt;/b&gt;&lt;/font&gt;&lt;div style=&quot;font-size: 8px;&quot;&gt;&lt;u&gt;Intra-layer links&lt;/u&gt;: stringDB interactions&lt;/div&gt;&lt;div style=&quot;font-size: 8px;&quot;&gt;&lt;u&gt;Inter-layer links&lt;/u&gt;: GCN&lt;/div&gt;" style="text;html=1;align=left;verticalAlign=middle;whiteSpace=wrap;rounded=0;" vertex="1" parent="1">
          <mxGeometry x="332" y="85.43" width="145" height="30" as="geometry" />
        </mxCell>
        <mxCell id="GLrBYKz7AC777N1wSI6P-9" value="&lt;div style=&quot;&quot;&gt;&lt;span style=&quot;font-size: 8px;&quot;&gt;&lt;b&gt;Abbreviations:&lt;/b&gt;&lt;/span&gt;&lt;/div&gt;&lt;span style=&quot;font-size: 8px;&quot;&gt;&lt;div style=&quot;&quot;&gt;&lt;span style=&quot;background-color: initial;&quot;&gt;&lt;u&gt;PPIN &lt;/u&gt;= protein-protein interaction network&lt;/span&gt;&lt;/div&gt;&lt;/span&gt;&lt;div style=&quot;&quot;&gt;&lt;span style=&quot;font-size: 8px;&quot;&gt;&lt;u&gt;GCN &lt;/u&gt;= gene co-expression network&lt;/span&gt;&lt;/div&gt;&lt;div style=&quot;&quot;&gt;&lt;span style=&quot;font-size: 8px;&quot;&gt;&lt;u&gt;GRN &lt;/u&gt;= gene regulatory network&lt;/span&gt;&lt;/div&gt;&lt;div style=&quot;&quot;&gt;&lt;span style=&quot;font-size: 8px;&quot;&gt;&lt;u&gt;GWAS &lt;/u&gt;= genome-wide association study&lt;/span&gt;&lt;/div&gt;" style="text;html=1;align=left;verticalAlign=top;whiteSpace=wrap;rounded=0;strokeWidth=0;" vertex="1" parent="1">
          <mxGeometry y="-7.105427357601002e-15" width="197" height="102.85" as="geometry" />
        </mxCell>
        <mxCell id="GLrBYKz7AC777N1wSI6P-29" style="edgeStyle=orthogonalEdgeStyle;rounded=0;orthogonalLoop=1;jettySize=auto;html=1;entryX=1;entryY=0.5;entryDx=0;entryDy=0;startSize=1;dashed=1;jumpSize=0;endSize=1;endArrow=none;endFill=0;" edge="1" parent="1" source="GLrBYKz7AC777N1wSI6P-12" target="GLrBYKz7AC777N1wSI6P-3">
          <mxGeometry relative="1" as="geometry" />
        </mxCell>
        <mxCell id="GLrBYKz7AC777N1wSI6P-12" value="&lt;font style=&quot;font-size: 8px;&quot;&gt;&lt;b&gt;3. GCN layer&lt;/b&gt;&lt;/font&gt;&lt;div style=&quot;font-size: 8px;&quot;&gt;&lt;u&gt;Intra-layer links:&lt;/u&gt; correlation links&amp;nbsp;&amp;nbsp;&lt;/div&gt;&lt;div style=&quot;font-size: 8px;&quot;&gt;&lt;u&gt;Inter-layer links&lt;/u&gt;: PPIN&lt;/div&gt;" style="text;html=1;align=left;verticalAlign=middle;whiteSpace=wrap;rounded=0;" vertex="1" parent="1">
          <mxGeometry x="332" y="126.85000000000002" width="145" height="30" as="geometry" />
        </mxCell>
        <mxCell id="GLrBYKz7AC777N1wSI6P-15" value="&lt;font style=&quot;font-size: 8px;&quot;&gt;&lt;b&gt;4. GRN layer&lt;/b&gt;&lt;/font&gt;&lt;div style=&quot;font-size: 8px;&quot;&gt;&lt;u&gt;Intra-layer links&lt;/u&gt;: no&amp;nbsp;&amp;nbsp;&lt;/div&gt;&lt;div style=&quot;font-size: 8px;&quot;&gt;&lt;u&gt;Inter-layer links&lt;/u&gt;: GCN&lt;/div&gt;" style="text;html=1;align=left;verticalAlign=middle;whiteSpace=wrap;rounded=0;" vertex="1" parent="1">
          <mxGeometry x="59" y="174" width="145" height="30" as="geometry" />
        </mxCell>
        <mxCell id="GLrBYKz7AC777N1wSI6P-16" value="" style="shape=parallelogram;perimeter=parallelogramPerimeter;whiteSpace=wrap;html=1;fixedSize=1;rotation=0;fillColor=#c85990;strokeColor=#FFFFFF;gradientColor=#000000;" vertex="1" parent="1">
          <mxGeometry x="278" y="185.14999999999998" width="104.32" height="32.85" as="geometry" />
        </mxCell>
        <mxCell id="GLrBYKz7AC777N1wSI6P-17" value="&lt;font style=&quot;font-size: 8px;&quot;&gt;&lt;b&gt;5. GWAS layer&lt;/b&gt;&lt;/font&gt;&lt;div style=&quot;font-size: 8px;&quot;&gt;&lt;u&gt;Intra-layer links&lt;/u&gt;: no&amp;nbsp;&lt;/div&gt;&lt;div style=&quot;font-size: 8px;&quot;&gt;&lt;u&gt;Inter-layer links&lt;/u&gt;: GCN&lt;/div&gt;" style="text;html=1;align=left;verticalAlign=middle;whiteSpace=wrap;rounded=0;" vertex="1" parent="1">
          <mxGeometry x="147" y="233" width="90" height="30" as="geometry" />
        </mxCell>
        <mxCell id="GLrBYKz7AC777N1wSI6P-18" value="&lt;font style=&quot;font-size: 8px;&quot;&gt;&lt;b&gt;6. DisGeNet associations&lt;/b&gt;&lt;/font&gt;&lt;div style=&quot;font-size: 8px;&quot;&gt;&lt;u&gt;Intra-layer links&lt;/u&gt;: no&lt;/div&gt;&lt;div style=&quot;font-size: 8px;&quot;&gt;&lt;u&gt;Inter-layer links&lt;/u&gt;: GCN&lt;/div&gt;" style="text;html=1;align=left;verticalAlign=middle;whiteSpace=wrap;rounded=0;" vertex="1" parent="1">
          <mxGeometry x="278" y="233" width="111.18" height="30" as="geometry" />
        </mxCell>
        <mxCell id="GLrBYKz7AC777N1wSI6P-19" value="" style="endArrow=none;html=1;rounded=0;exitX=0.5;exitY=0;exitDx=0;exitDy=0;entryX=0.5;entryY=1;entryDx=0;entryDy=0;" edge="1" parent="1" source="GLrBYKz7AC777N1wSI6P-5" target="GLrBYKz7AC777N1wSI6P-3">
          <mxGeometry width="50" height="50" relative="1" as="geometry">
            <mxPoint x="257" y="171.15" as="sourcePoint" />
            <mxPoint x="241" y="159.15" as="targetPoint" />
          </mxGeometry>
        </mxCell>
        <mxCell id="GLrBYKz7AC777N1wSI6P-20" value="" style="endArrow=none;html=1;rounded=0;exitX=1;exitY=0.5;exitDx=0;exitDy=0;entryX=0;entryY=0.5;entryDx=0;entryDy=0;" edge="1" parent="1" source="GLrBYKz7AC777N1wSI6P-4" target="GLrBYKz7AC777N1wSI6P-3">
          <mxGeometry width="50" height="50" relative="1" as="geometry">
            <mxPoint x="257" y="171.15" as="sourcePoint" />
            <mxPoint x="307" y="121.15" as="targetPoint" />
          </mxGeometry>
        </mxCell>
        <mxCell id="GLrBYKz7AC777N1wSI6P-21" value="" style="endArrow=none;html=1;rounded=0;exitX=0.5;exitY=0;exitDx=0;exitDy=0;entryX=0.5;entryY=1;entryDx=0;entryDy=0;" edge="1" parent="1" source="GLrBYKz7AC777N1wSI6P-16" target="GLrBYKz7AC777N1wSI6P-3">
          <mxGeometry width="50" height="50" relative="1" as="geometry">
            <mxPoint x="152" y="181.15" as="sourcePoint" />
            <mxPoint x="234" y="148.15" as="targetPoint" />
          </mxGeometry>
        </mxCell>
        <mxCell id="GLrBYKz7AC777N1wSI6P-22" value="" style="endArrow=none;html=1;rounded=0;exitX=0.5;exitY=0;exitDx=0;exitDy=0;entryX=0.5;entryY=1;entryDx=0;entryDy=0;" edge="1" parent="1" source="GLrBYKz7AC777N1wSI6P-3" target="GLrBYKz7AC777N1wSI6P-2">
          <mxGeometry width="50" height="50" relative="1" as="geometry">
            <mxPoint x="395" y="181.15" as="sourcePoint" />
            <mxPoint x="316" y="150.15" as="targetPoint" />
          </mxGeometry>
        </mxCell>
        <mxCell id="GLrBYKz7AC777N1wSI6P-23" value="" style="endArrow=none;html=1;rounded=0;exitX=0.5;exitY=0;exitDx=0;exitDy=0;entryX=0.5;entryY=1;entryDx=0;entryDy=0;" edge="1" parent="1" source="GLrBYKz7AC777N1wSI6P-2" target="GLrBYKz7AC777N1wSI6P-1">
          <mxGeometry width="50" height="50" relative="1" as="geometry">
            <mxPoint x="273" y="135.15" as="sourcePoint" />
            <mxPoint x="273" y="127.15" as="targetPoint" />
          </mxGeometry>
        </mxCell>
        <mxCell id="GLrBYKz7AC777N1wSI6P-27" style="edgeStyle=orthogonalEdgeStyle;rounded=0;orthogonalLoop=1;jettySize=auto;html=1;entryX=1;entryY=0.5;entryDx=0;entryDy=0;startSize=1;endSize=1;dashed=1;endArrow=none;endFill=0;" edge="1" parent="1" source="GLrBYKz7AC777N1wSI6P-7" target="GLrBYKz7AC777N1wSI6P-2">
          <mxGeometry relative="1" as="geometry" />
        </mxCell>
        <mxCell id="GLrBYKz7AC777N1wSI6P-30" value="&lt;b&gt;The RA network&lt;/b&gt;" style="text;whiteSpace=wrap;html=1;align=center;" vertex="1" parent="1">
          <mxGeometry x="209" width="118.33" height="36" as="geometry" />
        </mxCell>
        <mxCell id="GLrBYKz7AC777N1wSI6P-32" style="edgeStyle=orthogonalEdgeStyle;rounded=0;orthogonalLoop=1;jettySize=auto;html=1;entryX=0;entryY=0;entryDx=0;entryDy=0;dashed=1;endArrow=none;endFill=0;endSize=1;exitX=0;exitY=1;exitDx=0;exitDy=0;" edge="1" parent="1" source="GLrBYKz7AC777N1wSI6P-5" target="GLrBYKz7AC777N1wSI6P-17">
          <mxGeometry relative="1" as="geometry">
            <mxPoint x="379" y="68" as="sourcePoint" />
            <mxPoint x="316" y="68" as="targetPoint" />
          </mxGeometry>
        </mxCell>
        <mxCell id="GLrBYKz7AC777N1wSI6P-33" style="edgeStyle=orthogonalEdgeStyle;rounded=0;orthogonalLoop=1;jettySize=auto;html=1;dashed=1;endArrow=none;endFill=0;endSize=1;exitX=0;exitY=1;exitDx=0;exitDy=0;entryX=0;entryY=0;entryDx=0;entryDy=0;" edge="1" parent="1" source="GLrBYKz7AC777N1wSI6P-16" target="GLrBYKz7AC777N1wSI6P-18">
          <mxGeometry relative="1" as="geometry">
            <mxPoint x="157" y="228" as="sourcePoint" />
            <mxPoint x="279" y="233" as="targetPoint" />
          </mxGeometry>
        </mxCell>
        <mxCell id="GLrBYKz7AC777N1wSI6P-34" style="edgeStyle=orthogonalEdgeStyle;rounded=0;orthogonalLoop=1;jettySize=auto;html=1;dashed=1;endArrow=none;endFill=0;endSize=1;exitX=0;exitY=1;exitDx=0;exitDy=0;entryX=0;entryY=0;entryDx=0;entryDy=0;" edge="1" parent="1" target="GLrBYKz7AC777N1wSI6P-15">
          <mxGeometry relative="1" as="geometry">
            <mxPoint x="59" y="158.27" as="sourcePoint" />
            <mxPoint x="39" y="169" as="targetPoint" />
          </mxGeometry>
        </mxCell>
      </root>
    </mxGraphModel>
  </diagram>
</mxfile>
